<mxfile host="app.diagrams.net" agent="Mozilla/5.0 (Windows NT 10.0; Win64; x64) AppleWebKit/537.36 (KHTML, like Gecko) Chrome/134.0.0.0 Safari/537.36" version="26.1.1">
  <diagram name="StrÃ¡nka-1" id="18uiHCerZMXGGmR_ah0W">
    <mxGraphModel dx="989" dy="509" grid="1" gridSize="10" guides="1" tooltips="1" connect="1" arrows="1" fold="1" page="1" pageScale="1" pageWidth="827" pageHeight="1169" math="0" shadow="0">
      <root>
        <mxCell id="0" />
        <mxCell id="1" parent="0" />
        <mxCell id="vyZab9AKdNrv0TTCDvQP-7" value="&lt;font&gt;Backend&lt;/font&gt;" style="shape=mxgraph.ibm.box;prType=zone;fontStyle=0;verticalAlign=top;align=left;spacingLeft=32;spacingTop=4;fillColor=#E0E0E0;rounded=0;whiteSpace=wrap;html=1;strokeColor=#919191;strokeWidth=1;dashed=0;container=1;spacing=-4;collapsible=0;expand=0;recursiveResize=0;fontFamily=Courier New;fontSize=17;" vertex="1" parent="1">
          <mxGeometry x="450" y="130" width="200" height="330" as="geometry" />
        </mxCell>
        <mxCell id="vyZab9AKdNrv0TTCDvQP-5" value="API" style="image;aspect=fixed;perimeter=ellipsePerimeter;html=1;align=center;shadow=0;dashed=0;fontColor=#4277BB;labelBackgroundColor=none;fontSize=17;spacingTop=3;image=img/lib/ibm/security/api_security.svg;fontFamily=Courier New;" vertex="1" parent="vyZab9AKdNrv0TTCDvQP-7">
          <mxGeometry x="70" y="60" width="60" height="60" as="geometry" />
        </mxCell>
        <mxCell id="vyZab9AKdNrv0TTCDvQP-9" value="Functions" style="aspect=fixed;html=1;align=center;shadow=0;dashed=0;fontColor=#4277BB;labelBackgroundColor=none;fontSize=18;spacingTop=3;image=img/lib/ibm/applications/index.svg;fontFamily=Courier New;shape=image;verticalAlign=top;verticalLabelPosition=bottom;perimeter=ellipsePerimeter;" vertex="1" parent="vyZab9AKdNrv0TTCDvQP-7">
          <mxGeometry x="70" y="190" width="60" height="60" as="geometry" />
        </mxCell>
        <mxCell id="vyZab9AKdNrv0TTCDvQP-18" value="" style="html=1;labelBackgroundColor=#ffffff;startArrow=classic;startFill=1;startSize=6;endArrow=classic;endFill=1;endSize=6;jettySize=auto;orthogonalLoop=1;strokeWidth=1;fontSize=14;rounded=0;" edge="1" parent="vyZab9AKdNrv0TTCDvQP-7">
          <mxGeometry width="60" height="60" relative="1" as="geometry">
            <mxPoint x="-60" y="160" as="sourcePoint" />
            <mxPoint x="30" y="160" as="targetPoint" />
          </mxGeometry>
        </mxCell>
        <mxCell id="vyZab9AKdNrv0TTCDvQP-19" value="" style="html=1;labelBackgroundColor=#ffffff;startArrow=classic;startFill=1;startSize=6;endArrow=classic;endFill=1;endSize=6;jettySize=auto;orthogonalLoop=1;strokeWidth=1;fontSize=14;rounded=0;" edge="1" parent="vyZab9AKdNrv0TTCDvQP-7">
          <mxGeometry width="60" height="60" relative="1" as="geometry">
            <mxPoint x="-60" y="180" as="sourcePoint" />
            <mxPoint x="30" y="180" as="targetPoint" />
          </mxGeometry>
        </mxCell>
        <mxCell id="vyZab9AKdNrv0TTCDvQP-27" value="" style="html=1;labelBackgroundColor=#ffffff;startArrow=classic;startFill=1;startSize=6;endArrow=classic;endFill=1;endSize=6;jettySize=auto;orthogonalLoop=1;strokeWidth=1;fontSize=14;rounded=0;" edge="1" parent="vyZab9AKdNrv0TTCDvQP-7">
          <mxGeometry width="60" height="60" relative="1" as="geometry">
            <mxPoint x="160" y="154.5" as="sourcePoint" />
            <mxPoint x="250" y="154.5" as="targetPoint" />
          </mxGeometry>
        </mxCell>
        <mxCell id="vyZab9AKdNrv0TTCDvQP-28" value="" style="html=1;labelBackgroundColor=#ffffff;startArrow=classic;startFill=1;startSize=6;endArrow=classic;endFill=1;endSize=6;jettySize=auto;orthogonalLoop=1;strokeWidth=1;fontSize=14;rounded=0;" edge="1" parent="vyZab9AKdNrv0TTCDvQP-7">
          <mxGeometry width="60" height="60" relative="1" as="geometry">
            <mxPoint x="160" y="174.5" as="sourcePoint" />
            <mxPoint x="250" y="174.5" as="targetPoint" />
          </mxGeometry>
        </mxCell>
        <mxCell id="vyZab9AKdNrv0TTCDvQP-3" value="&lt;font&gt;Frontend&lt;/font&gt;" style="shape=mxgraph.ibm.box;prType=zone;fontStyle=0;verticalAlign=top;align=left;spacingLeft=32;spacingTop=4;fillColor=#E0E0E0;rounded=0;whiteSpace=wrap;html=1;strokeColor=#919191;strokeWidth=1;dashed=0;container=1;spacing=-4;collapsible=0;expand=0;recursiveResize=0;fontFamily=Courier New;fontSize=17;labelBackgroundColor=none;" vertex="1" parent="1">
          <mxGeometry x="214" y="130" width="200" height="330" as="geometry" />
        </mxCell>
        <mxCell id="vyZab9AKdNrv0TTCDvQP-6" value="&lt;font style=&quot;font-size: 18px;&quot;&gt;Login&lt;/font&gt;" style="aspect=fixed;html=1;align=center;shadow=0;dashed=0;fontColor=#4277BB;labelBackgroundColor=none;fontSize=12;spacingTop=3;image=img/lib/ibm/security/identity_access_management.svg;fontFamily=Courier New;shape=image;verticalAlign=top;verticalLabelPosition=bottom;perimeter=ellipsePerimeter;" vertex="1" parent="vyZab9AKdNrv0TTCDvQP-3">
          <mxGeometry x="70" y="60" width="60" height="60" as="geometry" />
        </mxCell>
        <mxCell id="vyZab9AKdNrv0TTCDvQP-14" value="&lt;span style=&quot;font-size: 18px;&quot;&gt;App&lt;/span&gt;" style="aspect=fixed;html=1;align=center;shadow=0;dashed=0;fontColor=#4277BB;labelBackgroundColor=none;fontSize=12;spacingTop=3;image=img/lib/ibm/infrastructure/dashboard.svg;fontFamily=Courier New;shape=image;verticalAlign=top;verticalLabelPosition=bottom;perimeter=ellipsePerimeter;" vertex="1" parent="vyZab9AKdNrv0TTCDvQP-3">
          <mxGeometry x="70" y="190" width="60" height="60" as="geometry" />
        </mxCell>
        <mxCell id="vyZab9AKdNrv0TTCDvQP-20" value="" style="fontStyle=0;verticalAlign=top;align=center;spacingTop=-2;fillColor=none;rounded=0;whiteSpace=wrap;html=1;strokeColor=#919191;strokeWidth=2;dashed=1;container=1;collapsible=0;expand=0;recursiveResize=0;" vertex="1" parent="vyZab9AKdNrv0TTCDvQP-3">
          <mxGeometry x="-14" y="-10" width="604" height="380" as="geometry" />
        </mxCell>
        <mxCell id="vyZab9AKdNrv0TTCDvQP-21" value="&lt;font style=&quot;font-size: 18px;&quot; face=&quot;Courier New&quot;&gt;&lt;b&gt;Web application architecture&lt;/b&gt;&lt;/font&gt;" style="text;html=1;align=center;verticalAlign=middle;resizable=0;points=[];autosize=1;strokeColor=none;fillColor=none;" vertex="1" parent="vyZab9AKdNrv0TTCDvQP-20">
          <mxGeometry x="137" y="340" width="330" height="40" as="geometry" />
        </mxCell>
        <mxCell id="vyZab9AKdNrv0TTCDvQP-32" value="Fetch data" style="text;html=1;align=center;verticalAlign=middle;resizable=0;points=[];autosize=1;strokeColor=none;fillColor=none;fontFamily=Courier New;fontStyle=1;labelBackgroundColor=#CCFFFF;labelBorderColor=default;rotation=0;" vertex="1" parent="vyZab9AKdNrv0TTCDvQP-20">
          <mxGeometry x="410" y="120" width="100" height="30" as="geometry" />
        </mxCell>
        <mxCell id="vyZab9AKdNrv0TTCDvQP-33" value="Request" style="text;html=1;align=center;verticalAlign=middle;resizable=0;points=[];autosize=1;strokeColor=none;fillColor=none;fontFamily=Courier New;fontStyle=1;labelBackgroundColor=#CCFFFF;labelBorderColor=default;" vertex="1" parent="vyZab9AKdNrv0TTCDvQP-20">
          <mxGeometry x="179" y="130" width="70" height="30" as="geometry" />
        </mxCell>
        <mxCell id="vyZab9AKdNrv0TTCDvQP-34" value="&lt;span&gt;Response&lt;/span&gt;" style="text;html=1;align=center;verticalAlign=middle;resizable=0;points=[];autosize=1;strokeColor=none;fillColor=none;fontFamily=Courier New;fontStyle=1;labelBackgroundColor=#CCFFFF;labelBorderColor=default;" vertex="1" parent="vyZab9AKdNrv0TTCDvQP-20">
          <mxGeometry x="210" y="200" width="80" height="30" as="geometry" />
        </mxCell>
        <mxCell id="vyZab9AKdNrv0TTCDvQP-1" value="&lt;font&gt;Web Client&lt;/font&gt;" style="image;aspect=fixed;perimeter=ellipsePerimeter;html=1;align=center;shadow=0;dashed=0;fontColor=#4277BB;labelBackgroundColor=none;fontSize=17;spacingTop=3;image=img/lib/ibm/users/browser.svg;fontFamily=Courier New;" vertex="1" parent="1">
          <mxGeometry x="80" y="265" width="60" height="60" as="geometry" />
        </mxCell>
        <mxCell id="vyZab9AKdNrv0TTCDvQP-10" value="&lt;font face=&quot;Courier New&quot; style=&quot;font-size: 18px;&quot;&gt;Database&lt;/font&gt;" style="image;aspect=fixed;perimeter=ellipsePerimeter;html=1;align=center;shadow=0;dashed=0;fontColor=#4277BB;labelBackgroundColor=default;fontSize=12;spacingTop=3;image=img/lib/ibm/data/data_services.svg;" vertex="1" parent="1">
          <mxGeometry x="710" y="265" width="60" height="60" as="geometry" />
        </mxCell>
        <mxCell id="vyZab9AKdNrv0TTCDvQP-16" value="" style="html=1;labelBackgroundColor=#ffffff;startArrow=classic;startFill=1;startSize=6;endArrow=classic;endFill=1;endSize=6;jettySize=auto;orthogonalLoop=1;strokeWidth=1;fontSize=14;rounded=0;" edge="1" parent="1">
          <mxGeometry width="60" height="60" relative="1" as="geometry">
            <mxPoint x="160" y="284.5" as="sourcePoint" />
            <mxPoint x="250" y="284.5" as="targetPoint" />
          </mxGeometry>
        </mxCell>
        <mxCell id="vyZab9AKdNrv0TTCDvQP-17" value="" style="html=1;labelBackgroundColor=#ffffff;startArrow=classic;startFill=1;startSize=6;endArrow=classic;endFill=1;endSize=6;jettySize=auto;orthogonalLoop=1;strokeWidth=1;fontSize=14;rounded=0;" edge="1" parent="1">
          <mxGeometry width="60" height="60" relative="1" as="geometry">
            <mxPoint x="160" y="304.5" as="sourcePoint" />
            <mxPoint x="250" y="304.5" as="targetPoint" />
          </mxGeometry>
        </mxCell>
        <mxCell id="vyZab9AKdNrv0TTCDvQP-23" value="Collect data" style="text;html=1;align=center;verticalAlign=middle;resizable=0;points=[];autosize=1;strokeColor=none;fillColor=none;fontFamily=Courier New;fontStyle=1;labelBackgroundColor=#CCFFFF;labelBorderColor=default;" vertex="1" parent="1">
          <mxGeometry x="150" y="250" width="110" height="30" as="geometry" />
        </mxCell>
        <mxCell id="vyZab9AKdNrv0TTCDvQP-31" value="&lt;span&gt;Display result&lt;/span&gt;" style="text;html=1;align=center;verticalAlign=middle;resizable=0;points=[];autosize=1;strokeColor=none;fillColor=none;fontFamily=Courier New;fontStyle=1;labelBackgroundColor=#CCFFFF;labelBorderColor=default;" vertex="1" parent="1">
          <mxGeometry x="145" y="310" width="120" height="30" as="geometry" />
        </mxCell>
      </root>
    </mxGraphModel>
  </diagram>
</mxfile>
